<svg width="14" height="12" viewBox="0 0 14 12" fill="none" xmlns="http://www.w3.org/2000/svg">
<path d="M3.84542 6.84891L1.04202 5.9355C1.04202 5.9355 0.706978 5.79957 0.81486 5.49133C0.837069 5.42777 0.881868 5.37369 1.01588 5.28074C1.63704 4.84777 12.513 0.938645 12.513 0.938645C12.513 0.938645 12.8201 0.835166 13.0012 0.903993C13.046 0.917862 13.0864 0.943384 13.1181 0.977948C13.1498 1.01251 13.1717 1.05488 13.1817 1.10071C13.2013 1.18166 13.2094 1.26494 13.206 1.34816C13.2051 1.42014 13.1964 1.48686 13.1898 1.59149C13.1236 2.66026 11.1413 10.6368 11.1413 10.6368C11.1413 10.6368 11.0227 11.1036 10.5978 11.1196C10.4934 11.123 10.3893 11.1053 10.2919 11.0676C10.1944 11.0299 10.1056 10.973 10.0306 10.9002C9.19674 10.1829 6.31465 8.24601 5.67779 7.82004C5.66343 7.81025 5.65133 7.79749 5.64231 7.78263C5.6333 7.76777 5.62757 7.75115 5.62553 7.73388C5.61662 7.68899 5.66544 7.63337 5.66544 7.63337C5.66544 7.63337 10.6839 3.17258 10.8175 2.7043C10.8278 2.66802 10.7887 2.65012 10.7363 2.66601C10.403 2.78863 4.62482 6.43757 3.9871 6.84029C3.94119 6.85418 3.89267 6.85713 3.84542 6.84891Z" fill="white"/>
</svg>
